<?xml version="1.0" encoding="UTF-8"?>
<svg xmlns="http://www.w3.org/2000/svg" version="1.1" xmlns:xlink="http://www.w3.org/1999/xlink" viewBox="0 0 841.89 595.28">
  <defs>
    <style>
      .cls-1 {
        fill: url(#linear-gradient-15);
      }

      .cls-2 {
        fill: url(#linear-gradient-13);
      }

      .cls-3 {
        fill: url(#linear-gradient-2);
      }

      .cls-4 {
        fill: url(#linear-gradient-10);
      }

      .cls-5 {
        fill: url(#linear-gradient-12);
      }

      .cls-6 {
        fill: #231f20;
      }

      .cls-7 {
        fill: url(#linear-gradient-4);
      }

      .cls-8 {
        fill: url(#linear-gradient-3);
      }

      .cls-9 {
        fill: url(#linear-gradient-5);
      }

      .cls-10 {
        fill: url(#linear-gradient-8);
      }

      .cls-11 {
        fill: url(#linear-gradient-14);
      }

      .cls-12 {
        fill: url(#linear-gradient-20);
      }

      .cls-13 {
        fill: url(#linear-gradient-17);
      }

      .cls-14 {
        fill: url(#linear-gradient-7);
      }

      .cls-15 {
        fill: url(#linear-gradient-9);
      }

      .cls-16 {
        fill: url(#linear-gradient-11);
      }

      .cls-17 {
        fill: url(#linear-gradient-19);
      }

      .cls-18 {
        fill: url(#linear-gradient-6);
      }

      .cls-19 {
        fill: url(#linear-gradient-21);
      }

      .cls-20 {
        fill: url(#linear-gradient-16);
      }

      .cls-21 {
        fill: url(#linear-gradient);
      }

      .cls-22 {
        fill: url(#linear-gradient-18);
      }
    </style>
    <linearGradient id="linear-gradient" x1="322.58" y1="237.37" x2="519.31" y2="237.37" gradientUnits="userSpaceOnUse">
      <stop offset=".14" stop-color="#4378a1"/>
      <stop offset=".34" stop-color="#62b5d0"/>
      <stop offset=".59" stop-color="#7e60a9"/>
      <stop offset=".8" stop-color="#8a4389"/>
    </linearGradient>
    <linearGradient id="linear-gradient-2" x1="315.86" y1="237.37" x2="526.03" y2="237.37" xlink:href="#linear-gradient"/>
    <linearGradient id="linear-gradient-3" x1="309.08" y1="237.37" x2="532.81" y2="237.37" xlink:href="#linear-gradient"/>
    <linearGradient id="linear-gradient-4" x1="302.31" y1="237.37" x2="539.57" y2="237.37" xlink:href="#linear-gradient"/>
    <linearGradient id="linear-gradient-5" x1="295.61" y1="237.37" x2="546.28" y2="237.37" xlink:href="#linear-gradient"/>
    <linearGradient id="linear-gradient-6" x1="289.14" y1="237.37" x2="552.75" y2="237.37" xlink:href="#linear-gradient"/>
    <linearGradient id="linear-gradient-7" x1="282.73" y1="237.37" x2="559.16" y2="237.37" xlink:href="#linear-gradient"/>
    <linearGradient id="linear-gradient-8" x1="276.57" y1="237.37" x2="565.32" y2="237.37" xlink:href="#linear-gradient"/>
    <linearGradient id="linear-gradient-9" x1="270.71" y1="237.37" x2="571.18" y2="237.37" xlink:href="#linear-gradient"/>
    <linearGradient id="linear-gradient-10" x1="265.21" y1="237.37" x2="576.68" y2="237.37" xlink:href="#linear-gradient"/>
    <linearGradient id="linear-gradient-11" x1="260.12" y1="237.37" x2="581.76" y2="237.37" xlink:href="#linear-gradient"/>
    <linearGradient id="linear-gradient-12" x1="255.5" y1="237.37" x2="586.39" y2="237.37" xlink:href="#linear-gradient"/>
    <linearGradient id="linear-gradient-13" x1="251.36" y1="237.37" x2="590.53" y2="237.37" xlink:href="#linear-gradient"/>
    <linearGradient id="linear-gradient-14" x1="247.77" y1="237.37" x2="594.12" y2="237.37" xlink:href="#linear-gradient"/>
    <linearGradient id="linear-gradient-15" x1="244.75" y1="237.37" x2="597.14" y2="237.37" xlink:href="#linear-gradient"/>
    <linearGradient id="linear-gradient-16" x1="242.3" y1="237.37" x2="599.59" y2="237.37" xlink:href="#linear-gradient"/>
    <linearGradient id="linear-gradient-17" x1="240.43" y1="237.37" x2="601.46" y2="237.37" xlink:href="#linear-gradient"/>
    <linearGradient id="linear-gradient-18" x1="239.12" y1="237.37" x2="602.77" y2="237.37" xlink:href="#linear-gradient"/>
    <linearGradient id="linear-gradient-19" x1="238.41" y1="237.37" x2="603.48" y2="237.37" xlink:href="#linear-gradient"/>
    <linearGradient id="linear-gradient-20" x1="238.01" y1="237.36" x2="603.89" y2="237.36" xlink:href="#linear-gradient"/>
    <linearGradient id="linear-gradient-21" x1="237.91" y1="237.37" x2="603.98" y2="237.37" xlink:href="#linear-gradient"/>
  </defs>
  <!-- Generator: Adobe Illustrator 28.7.1, SVG Export Plug-In . SVG Version: 1.2.0 Build 142)  -->
  <g>
    <g id="Layer_1">
      <g>
        <path class="cls-21" d="M344.84,340.04c-6.99,0-12.56-1.95-16.4-5.88-9.44-9.63-7.4-30.41,5.59-57.01,25.35-51.9,84.82-112.12,132.58-134.24,21.81-10.1,38.44-10.93,46.85-2.36,9.44,9.63,7.4,30.41-5.59,57-25.35,51.9-84.82,112.12-132.58,134.24-11.83,5.48-22.15,8.23-30.45,8.23ZM466.83,143.41l.23.49c-47.57,22.03-106.81,82.02-132.07,133.73-12.78,26.16-14.88,46.49-5.78,55.78,8.06,8.23,24.27,7.31,45.63-2.58,47.57-22.03,106.81-82.02,132.07-133.73,12.78-26.16,14.88-46.49,5.78-55.78-8.06-8.23-24.27-7.32-45.63,2.58l-.23-.49Z"/>
        <path class="cls-3" d="M339.82,341.44c-8.18,0-14.53-2.35-18.64-7.04-9.62-10.98-6.08-33.62,9.7-62.14,29.77-53.79,94.27-113.36,143.77-132.79,21.74-8.53,38.1-8.23,46.06.86,9.62,10.98,6.08,33.62-9.7,62.14-29.77,53.79-94.27,113.36-143.77,132.79-10.51,4.13-19.77,6.18-27.42,6.18ZM502.08,134.35c-7.5,0-16.63,2.04-27.04,6.12-49.31,19.35-113.56,78.7-143.23,132.31-15.55,28.1-19.13,50.3-9.83,60.91,7.64,8.72,23.57,8.92,44.86.56,49.31-19.35,113.56-78.7,143.23-132.31,15.55-28.1,19.13-50.3,9.83-60.91-3.91-4.46-9.98-6.69-17.83-6.69Z"/>
        <path class="cls-8" d="M335.22,342.51c-9.63,0-16.93-2.84-21.33-8.46-9.74-12.47-4.53-37.03,14.28-67.38,34.35-55.43,103.79-113.81,154.8-130.16,21.54-6.9,37.54-5.42,45.03,4.18,9.74,12.47,4.53,37.03-14.27,67.38-34.35,55.43-103.79,113.81-154.8,130.16-8.92,2.86-16.9,4.28-23.71,4.28ZM506.69,133.29c-6.69,0-14.56,1.41-23.4,4.24-50.8,16.28-119.98,74.46-154.21,129.7-18.56,29.95-23.79,54.07-14.34,66.16,7.2,9.22,22.78,10.58,43.86,3.82,50.8-16.28,119.98-74.46,154.21-129.7,18.56-29.95,23.79-54.07,14.34-66.16-4.18-5.35-11.19-8.06-20.47-8.06Z"/>
        <path class="cls-7" d="M330.91,343.32c-11.32,0-19.57-3.45-24.29-10.28-9.77-14.13-2.72-40.63,19.34-72.7,39.04-56.76,113.31-113.4,165.55-126.27,21.52-5.3,36.66-2.67,43.76,7.62,9.77,14.13,2.72,40.63-19.34,72.7-39.04,56.76-113.31,113.4-165.55,126.27-7.23,1.78-13.75,2.67-19.47,2.67ZM510.99,132.48c-5.64,0-12.07.88-19.23,2.64-52.03,12.81-126.01,69.26-164.93,125.84-21.79,31.68-28.84,57.73-19.34,71.48,6.83,9.88,21.57,12.37,42.63,7.18,52.03-12.81,126.01-69.26,164.93-125.84,21.79-31.68,28.84-57.73,19.34-71.48-4.51-6.52-12.46-9.82-23.4-9.82Z"/>
        <path class="cls-9" d="M327.54,343.77c-13.54,0-23.15-4.21-28.14-12.44-9.68-15.99-.6-44.43,24.9-78.03,43.84-57.76,122.77-112.06,175.94-121.04l.09.53-.09-.53c21.07-3.56,35.68.3,42.26,11.16,9.68,15.99.6,44.43-24.9,78.03-43.84,57.76-122.77,112.06-175.94,121.04-5.09.86-9.8,1.29-14.12,1.29ZM514.36,132.04c-4.25,0-8.91.42-13.95,1.27-52.94,8.94-131.56,63.06-175.26,120.63-24.85,32.75-34.14,61.47-24.84,76.83,6.33,10.45,20.56,14.13,41.16,10.65,52.94-8.94,131.56-63.06,175.26-120.63,24.85-32.75,34.14-61.47,24.84-76.83-4.78-7.89-14.07-11.93-27.21-11.93Z"/>
        <path class="cls-18" d="M325.12,343.98c-16.35,0-27.63-5.17-32.84-15.16-9.28-17.78,2.3-48.92,30.99-83.31,48.71-58.39,132.07-109.71,185.83-114.4,20.52-1.79,34.53,3.33,40.52,14.81,9.28,17.78-2.3,48.92-30.99,83.31-48.71,58.39-132.07,109.71-185.83,114.4-2.67.23-5.23.35-7.68.35ZM509.14,131.64l.05.53c-53.51,4.67-136.55,55.82-185.1,114.02-28.4,34.05-39.94,64.75-30.86,82.13,5.78,11.06,19.43,15.99,39.48,14.24,53.51-4.67,136.55-55.82,185.1-114.02,28.4-34.05,39.94-64.75,30.86-82.13-5.78-11.06-19.43-15.99-39.48-14.24l-.05-.53Z"/>
        <path class="cls-14" d="M323.9,344.03h-.03c-19.87,0-33.21-6.44-38.56-18.59-8.81-20.01,5.24-53.08,37.6-88.46,53.6-58.6,141.11-106.27,195.08-106.27h.03c19.87,0,33.21,6.44,38.56,18.59,8.81,20.01-5.24,53.08-37.6,88.46-53.6,58.6-141.11,106.27-195.08,106.27ZM517.99,131.78c-53.71,0-140.86,47.51-194.29,105.93-32.06,35.05-46.05,67.69-37.41,87.3,5.17,11.74,18.16,17.95,37.58,17.95h.03c53.71,0,140.86-47.51,194.29-105.93,32.06-35.05,46.05-67.69,37.41-87.3-5.17-11.74-18.17-17.95-37.58-17.95h-.03Z"/>
        <path class="cls-10" d="M323.96,344.03c-3.11,0-6.12-.14-9.02-.41-19.17-1.83-31.75-9.63-36.38-22.55-8.06-22.46,8.67-57.37,44.75-93.37,58.52-58.39,149.88-101.72,203.65-96.6,19.17,1.83,31.75,9.63,36.38,22.55,8.06,22.46-8.67,57.37-44.75,93.37-55.36,55.24-140.12,97.01-194.63,97.01ZM517.89,131.77c-54.24,0-138.65,41.63-193.83,96.7-35.78,35.7-52.41,70.19-44.49,92.25,4.49,12.5,16.76,20.06,35.48,21.84,53.48,5.1,144.46-38.09,202.79-96.29,35.78-35.7,52.41-70.19,44.49-92.25-4.49-12.5-16.76-20.06-35.48-21.84-2.88-.27-5.87-.41-8.96-.41Z"/>
        <path class="cls-15" d="M325.52,344.11c-6.94,0-13.46-.58-19.44-1.78-18.41-3.69-30.17-12.93-33.99-26.73-6.96-25.11,12.64-61.7,52.41-97.9,63.39-57.69,158.19-95.96,211.32-85.31,18.41,3.69,30.17,12.93,33.99,26.73,6.95,25.11-12.64,61.71-52.41,97.9-56.24,51.19-137.22,87.08-191.87,87.09ZM516.3,131.69c-54.37,0-135.01,35.79-191.08,86.81-39.47,35.92-58.94,72.11-52.1,96.82,3.71,13.38,15.17,22.35,33.16,25.96,5.94,1.19,12.41,1.77,19.3,1.77,54.37,0,135.01-35.79,191.08-86.81,39.47-35.92,58.94-72.11,52.1-96.82-3.71-13.38-15.17-22.35-33.16-25.96-5.94-1.19-12.41-1.77-19.3-1.77Z"/>
        <path class="cls-4" d="M328.85,344.43c-11.66,0-22.29-1.4-31.5-4.33-17.64-5.62-28.48-16.41-31.35-31.22-5.41-27.91,17.23-66,60.56-101.89,68.18-56.47,165.97-88.93,217.97-72.35,17.64,5.62,28.48,16.41,31.35,31.22,5.41,27.91-17.23,66-60.56,101.89-56.12,46.47-132.28,76.68-186.48,76.68ZM512.97,131.37c-53.91,0-129.78,30.13-185.72,76.45-43.03,35.64-65.53,73.34-60.19,100.86,2.79,14.39,13.38,24.91,30.63,30.4,51.7,16.47,149.03-15.9,216.97-72.16,43.03-35.64,65.53-73.34,60.19-100.86-2.79-14.39-13.38-24.91-30.63-30.4-9.13-2.91-19.68-4.29-31.24-4.29Z"/>
        <path class="cls-16" d="M334.16,345.17c-17.37,0-32.86-2.67-45.31-8.33-16.86-7.65-26.69-20.15-28.44-36.14-3.37-30.8,22.48-70.1,69.13-105.12,72.85-54.69,173.11-80.57,223.48-57.7,16.86,7.65,26.69,20.15,28.44,36.14,3.37,30.8-22.48,70.1-69.13,105.12-54.85,41.18-125.24,66.02-178.18,66.02ZM507.67,130.61c-52.66,0-122.79,24.78-177.47,65.83-46.35,34.79-72.04,73.73-68.71,104.15,1.7,15.59,11.32,27.79,27.81,35.28,50.06,22.73,149.82-3.1,222.4-57.58,46.35-34.79,72.04-73.73,68.71-104.15-1.7-15.59-11.32-27.79-27.81-35.28-12.34-5.6-27.7-8.25-44.92-8.25Z"/>
        <path class="cls-5" d="M341.55,346.59c-24.15,0-45.32-4.53-60.88-14.06-16.07-9.85-24.77-24.25-25.16-41.64-.75-33.67,28.41-73.81,78.01-107.36,77.35-52.32,179.5-70.85,227.7-41.31,16.07,9.85,24.77,24.25,25.16,41.64.75,33.67-28.41,73.81-78.01,107.36-52.38,35.43-116.14,55.37-166.81,55.37ZM500.3,129.19c-50.42,0-113.95,19.89-166.18,55.22-49.3,33.35-78.29,73.14-77.54,106.45.38,17.01,8.9,31.1,24.65,40.75,47.88,29.35,149.5,10.83,226.53-41.28,49.3-33.35,78.29-73.14,77.54-106.45-.38-17.01-8.9-31.1-24.65-40.75-15.42-9.45-36.41-13.94-60.36-13.94Z"/>
        <path class="cls-2" d="M350.91,348.92c-31.94,0-59.69-7.11-78.02-21.86-15.27-12.28-22.66-28.84-21.39-47.88,2.44-36.39,34.97-76.89,87.03-108.35,81.63-49.33,185.01-59.72,230.46-23.16,15.27,12.28,22.66,28.84,21.39,47.88-2.44,36.39-34.97,76.89-87.03,108.35-48.71,29.44-105.17,45.01-152.44,45.01ZM490.98,126.86c-47.05,0-103.32,15.53-151.89,44.89-51.76,31.28-84.1,71.47-86.51,107.51-1.25,18.67,6.01,34.92,20.99,46.97,45.13,36.31,147.96,25.88,229.24-23.24,51.76-31.28,84.1-71.47,86.51-107.51,1.25-18.67-6.01-34.92-20.99-46.97-18.16-14.61-45.66-21.65-77.34-21.65Z"/>
        <path class="cls-11" d="M361.83,352.42c-40.56,0-75.71-10.62-96.21-32-14.42-15.04-20.28-34.07-16.93-55.03,6.18-38.76,42.05-79.07,95.94-107.83,85.63-45.69,189.54-47.15,231.64-3.24,14.42,15.04,20.28,34.07,16.93,55.03-6.18,38.76-42.05,79.07-95.94,107.83-43.93,23.44-92.69,35.24-135.43,35.24ZM480.1,123.36c-42.56,0-91.15,11.77-134.96,35.15-53.6,28.6-89.26,68.62-95.39,107.05-3.29,20.61,2.47,39.33,16.65,54.12,41.79,43.58,145.12,42.04,230.36-3.45,53.6-28.6,89.26-68.62,95.39-107.05,3.29-20.61-2.47-39.33-16.65-54.12-20.31-21.18-55.16-31.7-95.39-31.7Z"/>
        <path class="cls-1" d="M373.61,357.31c-49.69,0-92.87-15.32-114.65-44.77-13.47-18.21-17.47-40.07-11.56-63.21,10.37-40.59,49.42-80.05,104.45-105.55,89.3-41.37,192.95-33.1,231.07,18.43h0c13.47,18.21,17.47,40.07,11.56,63.21-10.37,40.6-49.42,80.05-104.45,105.55-38.26,17.73-79.17,26.34-116.42,26.34ZM468.34,118.48c-37.1,0-77.87,8.59-116.03,26.27-54.75,25.36-93.57,64.56-103.86,104.84-5.83,22.82-1.89,44.36,11.38,62.31,37.83,51.15,140.89,59.26,229.75,18.1,54.75-25.36,93.57-64.56,103.86-104.84,5.83-22.82,1.89-44.36-11.38-62.31-21.58-29.19-64.42-44.36-113.73-44.36Z"/>
        <path class="cls-20" d="M385.39,363.74c-58.94,0-110.45-21.47-132.37-60.37-12.34-21.89-14.06-46.96-4.97-72.49,14.84-41.71,56.79-79.6,112.22-101.36,92.58-36.34,195.13-17.57,228.6,41.84,12.34,21.89,14.06,46.96,4.97,72.49-14.84,41.71-56.79,79.6-112.22,101.36-31.97,12.55-65.14,18.53-96.23,18.53ZM456.56,112.05c-30.98,0-64.03,5.96-95.9,18.47-55.15,21.65-96.87,59.3-111.6,100.72-8.98,25.23-7.28,49.99,4.9,71.6,33.22,58.97,135.18,77.52,227.28,41.37,55.15-21.65,96.87-59.3,111.6-100.72,8.97-25.23,7.28-49.99-4.9-71.6h0c-21.73-38.56-72.84-59.84-131.38-59.84Z"/>
        <path class="cls-13" d="M396.3,371.82c-68.03,0-127.72-29.36-148.41-78.92-10.92-26.16-9.85-54.8,3.1-82.82,19.37-41.94,63.81-77.52,118.89-95.18,95.4-30.59,195.94-.56,224.11,66.95,10.92,26.16,9.85,54.8-3.1,82.82-19.37,41.94-63.81,77.53-118.89,95.18-25.35,8.13-51.08,11.98-75.7,11.98ZM445.63,103.98c-24.53,0-50.15,3.83-75.42,11.93-54.8,17.57-99,52.94-118.24,94.61-12.81,27.74-13.88,56.08-3.08,81.96,20.51,49.16,79.79,78.27,147.37,78.27,24.53,0,50.15-3.83,75.42-11.93,54.8-17.57,99-52.94,118.24-94.61,12.81-27.74,13.88-56.08,3.08-81.96-20.51-49.16-79.79-78.27-147.37-78.27Z"/>
        <path class="cls-22" d="M405.67,381.57c-76.77,0-144.02-39.21-161.96-100.49-9.09-31.06-4.63-63.58,12.9-94.04,24.07-41.83,69.32-73.57,124.13-87.08,97.72-24.09,195.26,17.95,217.43,93.7,9.09,31.06,4.63,63.58-12.9,94.04-24.07,41.83-69.31,73.57-124.13,87.08-18.67,4.6-37.34,6.79-55.47,6.79ZM436.24,94.24c-18.06,0-36.64,2.18-55.24,6.76-54.54,13.44-99.54,45-123.46,86.57-17.38,30.2-21.8,62.43-12.8,93.2,17.8,60.81,84.62,99.72,160.91,99.72,18.06,0,36.64-2.18,55.24-6.76,54.54-13.44,99.54-45,123.46-86.57,17.38-30.2,21.8-62.43,12.8-93.2-17.8-60.81-84.62-99.72-160.91-99.72Z"/>
        <path class="cls-17" d="M413.04,392.96c-85.12,0-158.87-51.21-172.46-125.07-6.65-36.1,2.08-73.69,24.58-105.84,28.06-40.1,74.61-68.25,127.7-77.23,99.45-16.83,192.96,37.92,208.45,122.03,6.65,36.1-2.08,73.69-24.58,105.84-28.06,40.1-74.61,68.25-127.71,77.23-12.12,2.05-24.17,3.04-35.98,3.04ZM428.85,82.85c-11.76,0-23.74.98-35.81,3.02-52.82,8.94-99.11,36.92-127,76.79-22.33,31.92-31,69.22-24.41,105.03,13.5,73.34,86.8,124.19,171.4,124.19,11.76,0,23.74-.98,35.81-3.02,52.82-8.94,99.11-36.92,127-76.79,22.33-31.92,31-69.22,24.41-105.03h0c-13.5-73.34-86.8-124.19-171.4-124.19Z"/>
        <path class="cls-12" d="M418.16,405.93c-93.13,0-171.94-65.48-179.56-152.61-8.09-92.52,67.12-174.95,167.66-183.75,48.7-4.26,96.01,9.18,133.22,37.85,37.22,28.68,59.88,69.16,63.8,113.99,3.92,44.83-11.36,88.63-43.04,123.34-31.67,34.7-75.92,56.15-124.62,60.41-5.86.51-11.7.76-17.46.76ZM423.92,69.87c-5.82,0-11.68.26-17.56.77-99.95,8.74-174.73,90.65-166.69,182.59,7.57,86.56,85.92,151.62,178.49,151.63,5.74,0,11.53-.25,17.37-.76,48.43-4.24,92.44-25.57,123.92-60.06,31.47-34.48,46.66-78,42.76-122.52-3.9-44.53-26.41-84.74-63.39-113.24-32.5-25.04-72.77-38.4-114.91-38.4Z"/>
        <path class="cls-19" d="M420.94,420.41c-100.93,0-183.04-82.11-183.04-183.04S320.02,54.33,420.94,54.33s183.04,82.11,183.04,183.04-82.11,183.04-183.04,183.04ZM420.94,55.4c-100.34,0-181.97,81.63-181.97,181.97s81.63,181.97,181.97,181.97,181.97-81.63,181.97-181.97-81.63-181.97-181.97-181.97Z"/>
      </g>
    </g>
    <g id="Layer_2">
      <g>
        <path class="cls-6" d="M229.52,475.08c0,1.78.56,3.2,1.69,4.28,1.13,1.08,2.8,1.62,5,1.62h12.89c2.02,0,3.64-.65,4.86-1.94,1.22-1.3,1.84-2.9,1.84-4.82s-.59-3.41-1.76-4.75c-1.18-1.34-2.82-2.02-4.93-2.02h-12.89c-2.74,0-5.04-.96-6.91-2.88-1.87-1.92-2.81-4.27-2.81-7.06s.94-5.08,2.81-7.02c1.87-1.94,4.18-2.92,6.91-2.92h13.1c2.83,0,5.16.8,6.98,2.41,1.82,1.61,2.74,3.64,2.74,6.08v.58h-3.96v-.58c0-1.3-.48-2.41-1.44-3.35-.96-.94-2.5-1.4-4.61-1.4h-12.38c-1.82,0-3.31.59-4.46,1.76-1.15,1.18-1.73,2.63-1.73,4.36s.53,3.16,1.58,4.43c1.06,1.27,2.59,1.91,4.61,1.91h12.82c2.88,0,5.32,1,7.31,2.99,1.99,1.99,2.99,4.48,2.99,7.45s-1,5.41-2.99,7.45c-1.99,2.04-4.43,3.06-7.31,3.06h-13.9c-2.35,0-4.61-.8-6.77-2.41-2.16-1.61-3.24-4.02-3.24-7.24v-.07h3.96v.07Z"/>
        <path class="cls-6" d="M307.42,484.72l-4.54-9.22-1.66-3.6-10.08-20.74-16.27,33.55h-4.32l18.14-37.15h4.9l18.14,37.15h-4.32Z"/>
        <path class="cls-6" d="M346.66,447.57c3.22,0,5.82,1.01,7.81,3.02,1.99,2.02,2.99,4.58,2.99,7.7,0,2.88-.84,5.33-2.52,7.34-1.68,2.02-3.89,3.38-6.62,4.1l10.94,14.98h-4.82l-10.87-14.9h-9.43v-3.67h11.59c2.21,0,4.06-.71,5.54-2.12,1.49-1.42,2.23-3.35,2.23-5.8,0-2.06-.61-3.73-1.84-5-1.22-1.27-3.2-1.91-5.94-1.91h-17.71v33.41h-3.96v-37.15h22.61Z"/>
        <path class="cls-6" d="M405.05,484.72l-4.54-9.22-1.66-3.6-10.08-20.74-16.27,33.55h-4.32l18.14-37.15h4.9l18.14,37.15h-4.32Z"/>
        <path class="cls-6" d="M452,484.72l-4.54-9.22-1.66-3.6-10.08-20.74-16.27,33.55h-4.32l18.14-37.15h4.9l18.14,37.15h-4.32Z"/>
      </g>
      <g>
        <path class="cls-6" d="M490.27,466.38v1.87h-14.33v14.83h14.83v1.87h-14.83c-.55,0-1.02-.19-1.4-.58-.38-.38-.58-.85-.58-1.4v-14.62c0-.55.19-1.02.58-1.4s.85-.58,1.4-.58h14.33Z"/>
        <path class="cls-6" d="M518.02,484.96l-2.27-4.61-.83-1.8-5.04-10.37-8.14,16.78h-2.16l9.07-18.58h2.45l9.07,18.58h-2.16Z"/>
        <path class="cls-6" d="M532.03,468.25v16.7h-1.98v-18.58h11.34c1.56,0,2.84.51,3.85,1.53,1.01,1.02,1.51,2.32,1.51,3.91s-.52,2.95-1.55,4.01c-1.03,1.07-2.3,1.6-3.82,1.6h-6.34v-1.84h6.05c1.1,0,2-.35,2.68-1.04.68-.7,1.03-1.62,1.03-2.77,0-2.35-1.24-3.53-3.71-3.53h-9.07Z"/>
        <path class="cls-6" d="M557.84,484.96v-18.58h1.98v18.58h-1.98Z"/>
        <path class="cls-6" d="M586.67,466.38v1.87h-17.68v-1.87h17.68ZM578.83,471.17v13.79h-1.98v-13.79h1.98Z"/>
        <path class="cls-6" d="M608.6,484.96l-2.27-4.61-.83-1.8-5.04-10.37-8.14,16.78h-2.16l9.07-18.58h2.45l9.07,18.58h-2.16Z"/>
        <path class="cls-6" d="M622.14,466.38v16.7h13.03v1.87h-15.01v-18.58h1.98Z"/>
      </g>
    </g>
  </g>
</svg>